<svg width="1138" height="616" fill="none" xmlns="http://www.w3.org/2000/svg"><path fill-rule="evenodd" clip-rule="evenodd" d="M76 30c-25.405 0-46 20.595-46 46v122.824c54.106 6.652 96 52.772 96 108.676S84.106 409.524 30 416.176V540c0 25.405 20.595 46 46 46h986c25.41 0 46-20.595 46-46V412.98c-46.15-12.878-80-55.226-80-105.48 0-50.254 33.85-92.602 80-105.48V76c0-25.405-20.59-46-46-46H76Zm1062 46c0-41.974-34.03-76-76-76H76C34.026 0 0 34.026 0 76v153.715A79.798 79.798 0 0 1 16.5 228c4.602 0 9.112.391 13.5 1.142 37.477 6.41 66 39.053 66 78.358 0 39.305-28.523 71.948-66 78.358A79.975 79.975 0 0 1 16.5 387 79.798 79.798 0 0 1 0 385.285V540c0 41.974 34.026 76 76 76h986c41.97 0 76-34.026 76-76V386.998l-.18.001-.32.001-.5-.002c-43.68-.267-79-35.757-79-79.498 0-43.74 35.32-79.229 79-79.498l.5-.002.5.002V76Z" fill="#B12024"/><path fill-rule="evenodd" clip-rule="evenodd" d="M801 47.5c9.665 0 17.5 7.835 17.5 17.5v24.3c0 9.665-7.835 17.5-17.5 17.5s-17.5-7.835-17.5-17.5V65c0-9.665 7.835-17.5 17.5-17.5Zm0 72.9c9.665 0 17.5 7.835 17.5 17.5v48.6c0 9.665-7.835 17.5-17.5 17.5s-17.5-7.835-17.5-17.5v-48.6c0-9.665 7.835-17.5 17.5-17.5Zm0 97.2c9.665 0 17.5 7.835 17.5 17.5v48.6c0 9.665-7.835 17.5-17.5 17.5s-17.5-7.835-17.5-17.5v-48.6c0-9.665 7.835-17.5 17.5-17.5Zm0 97.2c9.665 0 17.5 7.835 17.5 17.5v48.6c0 9.665-7.835 17.5-17.5 17.5s-17.5-7.835-17.5-17.5v-48.6c0-9.665 7.835-17.5 17.5-17.5Zm0 97.2c9.665 0 17.5 7.835 17.5 17.5v48.6c0 9.665-7.835 17.5-17.5 17.5s-17.5-7.835-17.5-17.5v-48.6c0-9.665 7.835-17.5 17.5-17.5Zm0 97.2c9.665 0 17.5 7.835 17.5 17.5V551c0 9.665-7.835 17.5-17.5 17.5s-17.5-7.835-17.5-17.5v-24.3c0-9.665 7.835-17.5 17.5-17.5Z" fill="#B12024"/><g fill="#B12024"><path d="M325.848 179.62c-5.3 4.1-5.5 5.8-5.5 42.5 0 20 .4 35.3 1 37.5 2.8 10 14.5 11.9 21 3.4 1.2-1.5 1.6-6.9 2-24.9l.5-23 48.4 42.8 48.3 42.8-48.3 48.3-48.4 48.4-.5-37.4c-.5-36-.6-37.6-2.6-40.3-1.1-1.5-3.9-3.4-6-4.2-3.5-1.2-4.4-1.2-7.6.3-5.5 2.7-7.1 5.8-7.6 15.3l-.5 8.3h-59.7l-3.8 3.4c-3.3 3-3.7 4-3.7 8.1s.4 5.1 3.7 8.1l3.8 3.4h60v31.2c0 18.3.4 32.8 1 35 .6 2 2.4 4.8 4.1 6.2l3.1 2.6h357.7l3.6-3.1 3.5-3.1v-247l-3.4-3.4-3.4-3.4h-357.9l-2.8 2.2Zm344.5 119.5v98.8l-48-48c-44.9-44.9-47.9-48.1-46.2-49.6.9-.9 17.7-15.1 37.2-31.6 19.6-16.6 36.1-31.3 36.8-32.7 1.7-3.8 1.5-6.6-.8-10.4-2.8-4.5-8-6.7-12.6-5.2-2.2.7-26.5 20.7-63.7 52.2-33.1 28.1-61.4 52.1-62.8 53.5l-2.6 2.3-71.9-63.6c-39.5-35-72.1-63.8-72.3-64-.2-.2 68.7-.4 153.2-.4h153.7v98.7Zm-189.9 36c11 9.8 21.5 18.4 23.4 19.2 3 1.2 4 1.2 7 0 1.8-.8 12.7-9.3 24-18.9 11.4-9.6 21-17.6 21.3-17.8.4-.1 22.5 21.6 49.2 48.3l48.5 48.5h-293l48.5-48.8c26.7-26.9 49.1-48.7 49.8-48.6.7.2 10.3 8.4 21.3 18.1Z"/><path d="M205.148 222.72c-6.2 5.2-6.5 11.2-.9 16.8l3.9 3.9h45.1c48.9 0 48.9 0 52.5-5.4.9-1.4 1.6-4.4 1.6-6.7 0-3.5-.6-4.7-3.6-7.5l-3.5-3.4h-92.4l-2.7 2.3Zm-18.5 60.7c-4 2.4-5.3 4.8-5.3 10 0 3.4.6 4.8 3.4 7.6l3.4 3.4h196.1l3.6-3.5c2.8-2.9 3.5-4.3 3.5-7.6 0-2.2-.7-5.1-1.6-6.5-3.8-5.6.9-5.4-103.6-5.4-93.6 0-96.4.1-99.5 2Zm-1.9 106.4c-2.8 2.8-3.4 4.1-3.4 7.8 0 5 1.8 8.2 6 10.3 4.4 2.3 87.7 2.2 92 0 5.5-2.8 7.5-9.8 4.5-15.5-3.1-6-3.1-6-51.6-6h-44.1l-3.4 3.4Z"/></g></svg>