<svg width="1138" height="616" viewBox="0 0 1138 616" fill="none" xmlns="http://www.w3.org/2000/svg">
<path fill-rule="evenodd" clip-rule="evenodd" d="M76 30C50.5949 30 30 50.5949 30 76V198.824C84.1059 205.476 126 251.596 126 307.5C126 363.404 84.1059 409.524 30 416.176V540C30 565.405 50.5949 586 76 586H1062C1087.41 586 1108 565.405 1108 540V412.98C1061.85 400.102 1028 357.754 1028 307.5C1028 257.246 1061.85 214.898 1108 202.02V76C1108 50.5949 1087.41 30 1062 30H76ZM1138 76C1138 34.0264 1103.97 0 1062 0H76C34.0264 0 0 34.0264 0 76V229.715C5.32307 228.591 10.8425 228 16.5 228C21.1018 228 25.6123 228.391 30 229.142C67.4766 235.552 96 268.195 96 307.5C96 346.805 67.4766 379.448 30 385.858C25.6123 386.609 21.1018 387 16.5 387C10.8425 387 5.32307 386.409 0 385.285V540C0 581.974 34.0264 616 76 616H1062C1103.97 616 1138 581.974 1138 540V386.998L1137.82 386.999C1137.71 387 1137.61 387 1137.5 387C1137.33 387 1137.17 386.999 1137 386.998C1093.32 386.731 1058 351.241 1058 307.5C1058 263.76 1093.32 228.271 1137 228.002C1137.17 228.001 1137.33 228 1137.5 228C1137.67 228 1137.83 228.001 1138 228.002V76Z" fill="#B12024"/>
<path fill-rule="evenodd" clip-rule="evenodd" d="M801 47.5C810.665 47.5 818.5 55.335 818.5 65V89.3C818.5 98.965 810.665 106.8 801 106.8C791.335 106.8 783.5 98.965 783.5 89.3V65C783.5 55.335 791.335 47.5 801 47.5ZM801 120.4C810.665 120.4 818.5 128.235 818.5 137.9V186.5C818.5 196.165 810.665 204 801 204C791.335 204 783.5 196.165 783.5 186.5V137.9C783.5 128.235 791.335 120.4 801 120.4ZM801 217.6C810.665 217.6 818.5 225.435 818.5 235.1V283.7C818.5 293.365 810.665 301.2 801 301.2C791.335 301.2 783.5 293.365 783.5 283.7V235.1C783.5 225.435 791.335 217.6 801 217.6ZM801 314.8C810.665 314.8 818.5 322.635 818.5 332.3V380.9C818.5 390.565 810.665 398.4 801 398.4C791.335 398.4 783.5 390.565 783.5 380.9V332.3C783.5 322.635 791.335 314.8 801 314.8ZM801 412C810.665 412 818.5 419.835 818.5 429.5V478.1C818.5 487.765 810.665 495.6 801 495.6C791.335 495.6 783.5 487.765 783.5 478.1V429.5C783.5 419.835 791.335 412 801 412ZM801 509.2C810.665 509.2 818.5 517.035 818.5 526.7V551C818.5 560.665 810.665 568.5 801 568.5C791.335 568.5 783.5 560.665 783.5 551V526.7C783.5 517.035 791.335 509.2 801 509.2Z" fill="#B12024"/>
<path fill-rule="evenodd" clip-rule="evenodd" d="M252 140C224.938 140 203 161.938 203 189V427C203 454.062 224.938 476 252 476H490C517.062 476 539 454.062 539 427V189C539 161.938 517.062 140 490 140H252ZM291.515 240.188V209.094C291.515 206.885 293.306 205.094 295.515 205.094H349.209C349.761 205.094 350.209 204.646 350.209 204.094V170C350.209 167.791 352 166 354.209 166H384.76C386.969 166 388.76 167.791 388.76 170V204.094C388.76 204.646 389.207 205.094 389.76 205.094H444.496C446.705 205.094 448.496 206.885 448.496 209.094V236.923L345.347 370.812H429.504C431.12 370.812 432.571 371.785 433.236 373.257C437.197 382.026 445.472 397.11 454.053 402.641C456.199 404.024 454.747 410.021 449.19 409.906H389.454V445C389.454 447.209 387.663 449 385.454 449H354.904C352.695 449 350.904 447.209 350.904 445V409.906H291C288.791 409.906 287 408.115 287 405.906V376.347L391.191 244.188H295.515C293.306 244.188 291.515 242.397 291.515 240.188Z" fill="#B12024"/>
</svg>
